<?xml version="1.0" encoding="UTF-8"?>
<svg xmlns="http://www.w3.org/2000/svg" xmlns:xlink="http://www.w3.org/1999/xlink" width="32px" height="32px" viewBox="0 0 32 32" version="1.1">
<g id="surface1">
<path style=" stroke:none;fill-rule:nonzero;fill:rgb(0%,0%,0%);fill-opacity:1;" d="M 0 16 L 0 32 L 32 32 L 32 0 L 0 0 Z M 9.492188 12.179688 C 10.078125 13.246094 10.558594 14.136719 10.558594 14.164062 C 10.558594 14.1875 9.921875 14.207031 9.132812 14.207031 L 7.710938 14.207031 L 6.816406 12.574219 C 6.324219 11.679688 5.902344 10.945312 5.875 10.945312 C 5.84375 10.945312 5.824219 11.679688 5.824219 12.574219 C 5.824219 14.125 5.816406 14.207031 5.703125 14.207031 C 5.59375 14.207031 5.585938 14.113281 5.546875 12.683594 C 5.523438 11.851562 5.484375 10.957031 5.464844 10.699219 L 5.421875 10.238281 L 8.414062 10.238281 Z M 15.078125 10.539062 C 15.058594 10.714844 15.019531 11.601562 14.996094 12.523438 C 14.957031 14.207031 14.957031 14.207031 14.816406 14.207031 C 14.675781 14.207031 14.675781 14.207031 14.628906 12.460938 C 14.609375 11.507812 14.574219 10.609375 14.554688 10.476562 L 14.515625 10.238281 L 15.125 10.238281 Z M 19.246094 10.445312 C 19.21875 10.558594 19.167969 11.457031 19.128906 12.429688 L 19.046875 14.207031 L 16.59375 14.207031 L 16.558594 12.558594 C 16.53125 11.65625 16.492188 10.757812 16.472656 10.574219 L 16.429688 10.238281 L 19.277344 10.238281 Z M 26.535156 10.699219 C 26.515625 10.957031 26.476562 11.851562 26.453125 12.683594 L 26.414062 14.207031 L 23.9375 14.207031 L 23.9375 13.351562 C 23.9375 12.5 23.832031 10.664062 23.777344 10.378906 L 23.742188 10.238281 L 26.578125 10.238281 Z M 8.492188 15.820312 L 8.734375 16.160156 L 8.753906 15.820312 C 8.789062 15.308594 8.894531 15.425781 8.894531 15.96875 C 8.894531 16.550781 8.820312 16.582031 8.503906 16.140625 L 8.289062 15.839844 L 8.269531 16.140625 C 8.257812 16.359375 8.222656 16.449219 8.152344 16.449219 C 8.082031 16.449219 8.0625 16.34375 8.0625 15.96875 C 8.0625 15.371094 8.140625 15.347656 8.492188 15.820312 Z M 10.875 15.65625 C 10.949219 15.75 11.007812 15.898438 11.007812 15.980469 C 11.007812 16.199219 10.738281 16.449219 10.496094 16.449219 C 10.253906 16.449219 9.984375 16.199219 9.984375 15.980469 C 9.984375 15.710938 10.214844 15.488281 10.496094 15.488281 C 10.6875 15.488281 10.769531 15.527344 10.875 15.65625 Z M 12.734375 15.550781 C 12.734375 15.585938 12.664062 15.617188 12.574219 15.617188 C 12.421875 15.617188 12.414062 15.628906 12.414062 16.03125 C 12.414062 16.269531 12.390625 16.449219 12.351562 16.449219 C 12.3125 16.449219 12.289062 16.269531 12.289062 16.03125 C 12.289062 15.628906 12.28125 15.617188 12.128906 15.617188 C 12.039062 15.617188 11.96875 15.585938 11.96875 15.550781 C 11.96875 15.511719 12.140625 15.488281 12.351562 15.488281 C 12.5625 15.488281 12.734375 15.511719 12.734375 15.550781 Z M 15.230469 15.679688 C 15.230469 15.859375 15.25 15.871094 15.457031 15.871094 C 15.660156 15.871094 15.679688 15.859375 15.679688 15.679688 C 15.679688 15.550781 15.710938 15.488281 15.777344 15.488281 C 15.851562 15.488281 15.871094 15.585938 15.871094 15.96875 C 15.871094 16.351562 15.851562 16.449219 15.777344 16.449219 C 15.710938 16.449219 15.679688 16.382812 15.679688 16.257812 C 15.679688 16.078125 15.660156 16.0625 15.457031 16.0625 C 15.25 16.0625 15.230469 16.078125 15.230469 16.257812 C 15.230469 16.382812 15.199219 16.449219 15.136719 16.449219 C 15.058594 16.449219 15.039062 16.351562 15.039062 15.96875 C 15.039062 15.585938 15.058594 15.488281 15.136719 15.488281 C 15.199219 15.488281 15.230469 15.550781 15.230469 15.679688 Z M 17.214844 15.867188 C 17.214844 16.261719 17.292969 16.363281 17.542969 16.289062 C 17.644531 16.257812 17.664062 16.179688 17.664062 15.867188 C 17.664062 15.570312 17.683594 15.488281 17.761719 15.488281 C 17.902344 15.488281 17.894531 16.171875 17.746094 16.332031 C 17.621094 16.472656 17.300781 16.480469 17.140625 16.339844 C 16.984375 16.203125 16.964844 15.488281 17.121094 15.488281 C 17.195312 15.488281 17.214844 15.570312 17.214844 15.867188 Z M 19.355469 15.789062 L 19.507812 16.097656 L 19.65625 15.789062 C 19.75 15.597656 19.839844 15.488281 19.917969 15.488281 C 20.019531 15.488281 20.03125 15.546875 20.03125 15.96875 C 20.03125 16.351562 20.011719 16.449219 19.9375 16.449219 C 19.867188 16.449219 19.839844 16.371094 19.839844 16.140625 L 19.832031 15.839844 L 19.707031 16.078125 C 19.636719 16.210938 19.546875 16.320312 19.5 16.320312 C 19.457031 16.320312 19.355469 16.199219 19.28125 16.042969 L 19.140625 15.777344 L 19.140625 16.109375 C 19.136719 16.292969 19.109375 16.449219 19.070312 16.449219 C 19.035156 16.449219 19.007812 16.242188 19.007812 15.96875 C 19.007812 15.386719 19.117188 15.328125 19.355469 15.789062 Z M 21.863281 15.980469 C 22.023438 16.339844 22.046875 16.449219 21.976562 16.449219 C 21.925781 16.449219 21.867188 16.402344 21.847656 16.351562 C 21.824219 16.289062 21.722656 16.257812 21.5625 16.257812 C 21.394531 16.257812 21.292969 16.289062 21.273438 16.351562 C 21.246094 16.402344 21.191406 16.449219 21.140625 16.449219 C 21.089844 16.449219 21.054688 16.410156 21.074219 16.363281 C 21.320312 15.757812 21.472656 15.480469 21.554688 15.5 C 21.605469 15.511719 21.746094 15.730469 21.863281 15.980469 Z M 23.511719 15.820312 L 23.742188 16.152344 L 23.742188 15.820312 C 23.742188 15.566406 23.769531 15.488281 23.839844 15.488281 C 23.917969 15.488281 23.9375 15.585938 23.9375 15.96875 C 23.9375 16.5625 23.859375 16.589844 23.507812 16.113281 L 23.265625 15.777344 L 23.246094 16.113281 C 23.210938 16.628906 23.105469 16.511719 23.105469 15.96875 C 23.105469 15.378906 23.179688 15.347656 23.511719 15.820312 Z M 5.824219 18.574219 C 5.824219 19.570312 5.921875 21.472656 5.992188 21.902344 L 6.027344 22.144531 L 5.425781 22.144531 L 5.464844 21.707031 C 5.484375 21.472656 5.523438 20.453125 5.542969 19.4375 C 5.582031 17.703125 5.59375 17.601562 5.703125 17.601562 C 5.816406 17.601562 5.824219 17.671875 5.824219 18.574219 Z M 13.5625 19.550781 L 14.625 21.472656 L 14.644531 19.53125 L 14.65625 17.601562 L 14.957031 17.601562 L 15 19.597656 C 15.019531 20.699219 15.058594 21.722656 15.078125 21.867188 L 15.117188 22.144531 L 12.109375 22.144531 L 11.007812 20.140625 C 10.398438 19.046875 9.832031 18.023438 9.742188 17.867188 L 9.585938 17.601562 L 11.046875 17.613281 L 12.503906 17.632812 Z M 19.070312 18.347656 C 19.070312 19.265625 19.179688 21.515625 19.238281 21.882812 L 19.28125 22.144531 L 16.433594 22.144531 L 16.472656 21.835938 C 16.492188 21.671875 16.523438 20.652344 16.550781 19.566406 L 16.59375 17.601562 L 19.070312 17.601562 Z M 26.457031 19.46875 C 26.484375 20.5 26.523438 21.523438 26.546875 21.742188 L 26.597656 22.144531 L 23.742188 22.144531 L 23.777344 21.996094 C 23.847656 21.691406 23.9375 19.832031 23.9375 18.746094 L 23.9375 17.601562 L 26.414062 17.601562 Z M 26.457031 19.46875 "/>
<path style=" stroke:none;fill-rule:nonzero;fill:rgb(0%,0%,0%);fill-opacity:1;" d="M 10.277344 15.71875 C 10.144531 15.851562 10.152344 16.082031 10.292969 16.210938 C 10.445312 16.351562 10.578125 16.34375 10.707031 16.203125 C 10.910156 15.980469 10.777344 15.617188 10.496094 15.617188 C 10.433594 15.617188 10.328125 15.660156 10.277344 15.71875 Z M 10.277344 15.71875 "/>
<path style=" stroke:none;fill-rule:nonzero;fill:rgb(0%,0%,0%);fill-opacity:1;" d="M 21.460938 15.871094 C 21.390625 16.050781 21.394531 16.0625 21.542969 16.0625 C 21.714844 16.0625 21.726562 16.03125 21.613281 15.828125 L 21.53125 15.679688 Z M 21.460938 15.871094 "/>
</g>
</svg>
